<svg width="101" height="30" fill="none" xmlns="http://www.w3.org/2000/svg"><path d="M10.08 26.32a8.47 8.47 0 011.64.52c.48.213.947.427 1.4.64V29H.8v-1.52a8.84 8.84 0 011.68-.72 11.913 11.913 0 011.6-.44V3.68C2.747 3.387 1.653 3 .8 2.52V1h4.24c.533 0 1.133-.013 1.8-.04C7.533.933 8.253.907 9 .88a61.988 61.988 0 012.28-.12c.773-.053 1.52-.08 2.24-.08 1.467 0 2.813.173 4.04.52 1.253.32 2.32.813 3.2 1.48a6.577 6.577 0 012.08 2.52c.507.987.76 2.147.76 3.48 0 1.92-.467 3.493-1.4 4.72-.933 1.227-2.213 2.147-3.84 2.76 1.067 1.68 2.2 3.4 3.4 5.16a77.872 77.872 0 003.8 5.04l1.92 1.28V29H20.8l-1.72-1.32c-1.227-1.467-2.32-3.16-3.28-5.08a79.064 79.064 0 01-2.48-5.72h-3.24v9.44zm2-23.04c-.827 0-1.493.08-2 .24v11.16h2.36c1.36 0 2.52-.48 3.48-1.44.96-.987 1.44-2.44 1.44-4.36 0-.987-.133-1.827-.4-2.52-.267-.72-.64-1.307-1.12-1.76a4.477 4.477 0 00-1.68-1 6.54 6.54 0 00-2.08-.32zM49.73 1a62.04 62.04 0 01-.28 3.72 43.152 43.152 0 01-.52 3.6h-1.64L45.45 3.6h-7.48v9.8h4.88l1.76-3.08h1.28c.134 1.307.2 2.76.2 4.36 0 1.6-.066 3.093-.2 4.48h-1.28L42.85 16h-4.88v10.4h7.8l2.12-5.08h1.64c.107.507.214 1.08.32 1.72.107.64.187 1.307.24 2 .08.667.134 1.347.16 2.04.054.693.08 1.333.08 1.92H28.69v-1.52c.454-.24.96-.467 1.52-.68a9.513 9.513 0 011.76-.48V3.68a18.204 18.204 0 01-1.72-.44 9.441 9.441 0 01-1.56-.72V1h21.04zm8.581 24.68c.294.293.707.573 1.24.84.534.24 1.24.36 2.12.36 1.467 0 2.68-.373 3.64-1.12.987-.773 1.48-1.84 1.48-3.2 0-.987-.32-1.813-.96-2.48-.613-.667-1.4-1.28-2.36-1.84a47.067 47.067 0 00-3.08-1.64 19.438 19.438 0 01-3.08-1.96 10.276 10.276 0 01-2.4-2.64c-.613-1.04-.92-2.32-.92-3.84 0-1.307.24-2.44.72-3.4a6.517 6.517 0 011.96-2.36c.854-.64 1.854-1.107 3-1.4 1.147-.32 2.387-.48 3.72-.48 1.627 0 3.134.12 4.52.36 1.414.213 2.68.56 3.8 1.04-.026.533-.08 1.147-.16 1.84a27.66 27.66 0 01-.24 2.08 35.354 35.354 0 01-.36 1.92 19.27 19.27 0 01-.32 1.48h-1.64l-1.84-5.48c-.32-.16-.8-.307-1.44-.44a9.017 9.017 0 00-1.92-.2c-1.12 0-2.066.293-2.84.88-.773.587-1.16 1.44-1.16 2.56 0 1.013.32 1.88.96 2.6.64.693 1.44 1.333 2.4 1.92s2 1.173 3.12 1.76c1.147.56 2.2 1.213 3.16 1.96.96.747 1.76 1.627 2.4 2.64.64.987.96 2.213.96 3.68 0 2.667-.906 4.733-2.72 6.2-1.786 1.44-4.426 2.16-7.92 2.16a21.587 21.587 0 01-5.04-.6 22.294 22.294 0 01-2.08-.6c-.586-.213-1.026-.44-1.32-.68.027-.613.094-1.267.2-1.96.107-.72.214-1.427.32-2.12.134-.72.267-1.4.4-2.04.134-.64.267-1.2.4-1.68h1.64l1.64 5.88zM94.536 29h-13.76v-1.52a27.205 27.205 0 011.8-.64c.693-.24 1.387-.413 2.08-.52V3.6h-4.64l-2.56 6.84h-1.64a30.996 30.996 0 01-.32-2.04c-.107-.827-.2-1.68-.28-2.56-.08-.88-.147-1.747-.2-2.6a37.98 37.98 0 01-.08-2.24h25.44c0 .64-.027 1.387-.08 2.24a91.12 91.12 0 01-.2 2.6c-.08.88-.173 1.733-.28 2.56-.107.8-.213 1.48-.32 2.04h-1.64l-2.56-6.84h-4.64v22.72a25.2 25.2 0 012.04.48 9.829 9.829 0 011.84.68V29z" fill="#fff"/></svg>